<svg width="340" height="333" xmlns="http://www.w3.org/2000/svg">

 <g>
  <title>Layer 1</title>
  <g id="freepik--Shadow--inject-2">
   <ellipse fill="#f5f5f5" ry="11.32" rx="193.89" cy="416.24" cx="250" id="freepik--path--inject-2"/>
  </g>
  <g id="freepik--character-2--inject-2">
   <path id="svg_1" fill="#263238" d="m287,17c-8.07,-3.56 -17.41,-5.57 -22.09,2.08c-3.07,5 -4.6,15.22 -10,20.72a4.42,4.42 0 0 0 -1.48,3.22a1.62,1.62 0 0 0 0,0.23c0.09,3.08 2.56,7.2 8.91,8.72a10.88,10.88 0 0 1 -3.18,-3.16a21.21,21.21 0 0 0 8.28,1.74c7.48,-0.08 13.23,0.49 16.66,2.27s9.67,-6 9.39,-9.54c1.35,2 3,0 3.53,-4.92c1.45,-12.65 -2.66,-23.02 -10.02,-21.36z"/>
   <path id="svg_2" fill="#FCA311" d="m268.63,56.54a6.54,6.54 0 1 1 6.55,-6.54a6.55,6.55 0 0 1 -6.55,6.54zm0,-12.6a6.06,6.06 0 1 0 6.06,6.06a6.06,6.06 0 0 0 -6.06,-6.06z"/>
   <path id="svg_3" fill="#b55b52" d="m261.87,79.28a135.16,135.16 0 0 1 -8.34,14.19a80.17,80.17 0 0 1 -5,6.76a36.44,36.44 0 0 1 -6.48,6.4a9.26,9.26 0 0 1 -1.47,0.91a8.08,8.08 0 0 1 -2,0.69a8,8 0 0 1 -4.08,-0.3a12.46,12.46 0 0 1 -4.82,-3.29a25.46,25.46 0 0 1 -2.87,-3.67c-0.81,-1.24 -1.53,-2.48 -2.19,-3.73a81.08,81.08 0 0 1 -6,-15.43l4.37,-1.64a129.06,129.06 0 0 0 7.74,13.41a29.54,29.54 0 0 0 4.49,5.38a4.39,4.39 0 0 0 1.78,1.1c0.12,0 0,-0.07 -0.14,-0.05s-0.12,0 -0.13,0s-0.06,0 0.19,-0.18a32,32 0 0 0 4.53,-5.15c1.47,-2 2.88,-4.13 4.26,-6.29s2.68,-4.42 4,-6.66s2.57,-4.56 3.78,-6.77l8.38,4.32z"/>
   <path id="svg_4" fill="#FCA311" d="m259.1,66.13c-3.92,-0.14 -10.86,14.14 -10.86,14.14l7.47,16.73s14.65,-19.28 13,-24.11c-1.71,-5.05 -3.89,-6.56 -9.61,-6.76z"/>
   <path id="svg_5" fill="#fff" opacity="0.6" d="m259.1,66.13c-3.92,-0.14 -10.86,14.14 -10.86,14.14l7.47,16.73s14.65,-19.28 13,-24.11c-1.71,-5.05 -3.89,-6.56 -9.61,-6.76z"/>
   <path id="svg_6" fill="#b55b52" d="m222.36,73.46l1.16,10.33l-2.72,1.9c-3.73,-0.86 -5.29,-6.58 -5.29,-6.58l-1.68,-3.67a4.27,4.27 0 0 1 0.87,-4.79l0.76,-0.75a3.4,3.4 0 0 1 5.21,0.43l1.09,1.56a3.39,3.39 0 0 1 0.6,1.57z"/>
   <polygon id="svg_7" fill="#b55b52" points="278.05999755859375,322.4599914550781 268.8399963378906,322.4599914550781 268,301.1000061035156 277.2300109863281,301.1000061035156 278.05999755859375,322.4599914550781 "/>
   <path id="svg_8" fill="#263238" d="m268,321.39l10.37,0a0.66,0.66 0 0 1 0.67,0.63l0.35,8.2a1.66,1.66 0 0 1 -1.64,1.64c-3.61,-0.06 -5.33,-0.27 -9.89,-0.27c-2.8,0 -9.25,0.29 -13.12,0.29s-3.7,-3.83 -2.05,-4.18c7.39,-1.55 11.07,-3.69 13.71,-5.74a2.65,2.65 0 0 1 1.6,-0.57z"/>
   <g id="svg_9" opacity="0.2">
    <polygon id="svg_10" points="268,301.1099853515625 268.42999267578125,312.1199951171875 277.6600036621094,312.1199951171875 277.2300109863281,301.1099853515625 268,301.1099853515625 "/>
   </g>
   <path id="svg_11" fill="#FCA311" d="m255.4,70.7c-0.2,5.83 0.81,19.45 6.94,51.17l37.45,-1.12c-1,-14.16 -1.34,-23.28 3.74,-49.87a6.07,6.07 0 0 0 -5.25,-7.18c-2.75,-0.32 -6.1,-0.62 -9.48,-0.68a118.76,118.76 0 0 0 -17,0.51c-4.33,0.52 -9,1.42 -12.07,2.07a5.41,5.41 0 0 0 -4.33,5.1z"/>
   <path id="svg_12" fill="#fff" opacity="0.7" d="m255.4,70.7c-0.2,5.83 0.81,19.45 6.94,51.17l37.45,-1.12c-1,-14.16 -1.34,-23.28 3.74,-49.87a6.07,6.07 0 0 0 -5.25,-7.18c-2.75,-0.32 -6.1,-0.62 -9.48,-0.68a118.76,118.76 0 0 0 -17,0.51c-4.33,0.52 -9,1.42 -12.07,2.07a5.41,5.41 0 0 0 -4.33,5.1z"/>
   <path id="svg_13" fill="#b55b52" d="m286.54,43.92c-0.91,5.51 -1.68,15.56 2.26,19.1a21.2,21.2 0 0 1 -13,9.27c-8.63,-4.38 -4,-8.76 -4,-8.76c6.06,-1.64 5.77,-6.16 4.58,-10.38l10.16,-9.23z"/>
   <polygon id="svg_14" fill="#FCA311" points="275.80999755859375,72.28999328613281 276.92999267578125,70.10000610351562 282.9200134277344,71.46000671386719 275.80999755859375,72.28999328613281 "/>
   <path id="svg_15" fill="#fff" d="m276.93,70.1c1.92,-0.88 10.83,-6.68 11.18,-8.49a21.73,21.73 0 0 1 5.06,1.34s-1.6,7.15 -10.25,12a9.47,9.47 0 0 0 -5.99,-4.85z"/>
   <polygon id="svg_16" fill="#FCA311" points="275.80999755859375,72.28999328613281 275.30999755859375,70.10000610351562 271.6300048828125,70.36000061035156 275.80999755859375,72.28999328613281 "/>
   <path id="svg_17" fill="#fff" d="m275.31,70.1c-3,-2 -1.88,-6.1 -1.59,-7.91a16,16 0 0 0 -4.37,1.08s-4.51,4.14 -0.14,11.72a14,14 0 0 1 6.1,-4.89z"/>
   <path id="svg_18" opacity="0.2" d="m282.4,47.69l-6,5.45a17,17 0 0 1 0.62,3c2.32,-0.4 5.45,-3.06 5.62,-5.5a8.27,8.27 0 0 0 -0.24,-2.95z"/>
   <path id="svg_19" fill="#b55b52" d="m289.45,32.24c-0.4,9.14 -0.38,13 -4.91,17.79c-6.82,7.17 -18,4.68 -20.31,-4.4c-2.1,-8.18 -1.08,-21.76 7.8,-25.55a12.49,12.49 0 0 1 17.42,12.16z"/>
   <path id="svg_20" fill="#263238" d="m282.92,22.57c-3.07,5.15 -7.44,-1.4 -10.92,2.52c-2.79,3.14 -7.36,-0.16 -10,8.8c0.92,-7.7 2.21,-14.51 10.08,-16.77c4.85,-1.4 14.13,-1.93 10.84,5.45z"/>
   <path id="svg_21" fill="#263238" d="m284.49,19c-2.69,1.87 -5.45,4.56 -5.12,7.85s5.05,1.85 5.68,4.16s-2.82,7.17 2.19,7.65c5.72,-3.19 7.32,-3.89 6.28,-8.79s-4.66,-11.52 -9.03,-10.87z"/>
   <path id="svg_22" fill="#FCA311" d="m262.26,121.87s-3.62,68.13 -3.81,96.13c-0.19,29.14 8,92 8,92l12.47,0s-2.37,-63.52 -0.45,-92.26c2.09,-31.33 9.38,-96.68 9.38,-96.68l-25.59,0.81z"/>
   <polygon id="svg_23" fill="#263238" points="279.9700012207031,310.42999267578125 265.3299865722656,310.42999267578125 264.7300109863281,305.760009765625 281.17999267578125,305.19000244140625 279.9700012207031,310.42999267578125 "/>
   <path id="svg_24" opacity="0.2" d="m285.22,145.52c-1.34,-1.68 -3.11,-0.8 -5.42,4c-7.88,16.35 -3.88,42.42 -0.51,57.44c1.52,-18.72 4.02,-43.35 5.93,-61.44z"/>
   <path id="svg_25" fill="#263238" d="m274,35.74c0,0.74 -0.37,1.35 -0.86,1.36s-0.89,-0.59 -0.9,-1.33s0.37,-1.36 0.85,-1.37s0.91,0.6 0.91,1.34z"/>
   <path id="svg_26" fill="#263238" d="m265.62,35.67c0,0.74 -0.38,1.35 -0.86,1.36s-0.89,-0.59 -0.91,-1.33s0.38,-1.36 0.86,-1.36s0.89,0.58 0.91,1.33z"/>
   <path id="svg_27" fill="#263238" d="m264.93,34.37l-1.8,-0.48s0.94,1.38 1.8,0.48z"/>
   <path id="svg_28" fill="#a02724" d="m268.54,36.35a19.62,19.62 0 0 1 -2.57,4.8a3.19,3.19 0 0 0 2.66,0.45l-0.09,-5.25z"/>
   <path id="svg_29" fill="#263238" d="m273.1,44.05a6.43,6.43 0 0 1 -1.1,0.1a0.21,0.21 0 0 1 -0.22,-0.21a0.22,0.22 0 0 1 0.21,-0.22a5.9,5.9 0 0 0 4.77,-2.39a0.22,0.22 0 0 1 0.37,0.23a6.14,6.14 0 0 1 -4.03,2.49z"/>
   <path id="svg_30" fill="#b55b52" d="m292.05,40.85a6.67,6.67 0 0 1 -3.73,3.49c-2.2,0.81 -3.49,-1.11 -3,-3.29c0.41,-2 2,-4.74 4.33,-4.61a3,3 0 0 1 2.4,4.41z"/>
   <path id="svg_31" fill="#FCA311" d="m288.19,56.54a6.54,6.54 0 1 1 6.54,-6.54a6.55,6.55 0 0 1 -6.54,6.54zm0,-12.6a6.06,6.06 0 1 0 6.05,6.06a6.07,6.07 0 0 0 -6.05,-6.06z"/>
   <path id="svg_32" fill="#263238" d="m277.32,31.72a0.44,0.44 0 0 1 -0.46,-0.23c-0.94,-1.79 -3.52,-2.14 -3.55,-2.14a0.44,0.44 0 0 1 0.12,-0.87c0.12,0 3.05,0.42 4.2,2.6a0.44,0.44 0 0 1 -0.18,0.6l-0.13,0.04z"/>
   <path id="svg_33" fill="#263238" d="m263,31a0.43,0.43 0 0 1 -0.41,-0.14a0.43,0.43 0 0 1 0.05,-0.62a4.35,4.35 0 0 1 3.86,-1a0.45,0.45 0 0 1 0.3,0.55a0.43,0.43 0 0 1 -0.54,0.29l0,0a3.44,3.44 0 0 0 -3.05,0.83a0.48,0.48 0 0 1 -0.21,0.09z"/>
   <path id="svg_34" fill="#b55b52" d="m309.26,74.77c1.68,4.81 3.16,9.61 4.5,14.52c0.68,2.45 1.33,4.92 1.88,7.45c0.27,1.27 0.54,2.55 0.77,3.88a36,36 0 0 1 0.5,4.29l0,0.63l0,0.74c0,0.44 -0.06,0.71 -0.1,1.08c-0.06,0.69 -0.15,1.32 -0.24,2c-0.18,1.29 -0.39,2.55 -0.6,3.8c-0.42,2.51 -0.92,5 -1.42,7.45c-1,4.93 -2.19,9.82 -3.53,14.69l-4.61,-0.76c0.27,-5 0.65,-10 1.05,-15l0.6,-7.41c0.09,-1.23 0.17,-2.45 0.24,-3.64c0,-0.6 0.07,-1.2 0.08,-1.76c0,-0.26 0,-0.61 0,-0.79l0,-0.2l0,-0.3a30.51,30.51 0 0 0 -0.6,-3.12c-0.26,-1.13 -0.56,-2.28 -0.88,-3.44c-0.65,-2.32 -1.34,-4.67 -2.05,-7l-4.49,-14.08l8.9,-3.03z"/>
   <path id="svg_35" fill="#FCA311" d="m298.28,63.7c12.28,1.52 14.71,16.52 16.46,20.29l-12.05,10.11s-7.63,-12.83 -8.74,-17.81c-1.15,-5.19 -0.11,-13.14 4.33,-12.59z"/>
   <path id="svg_36" fill="#fff" opacity="0.7" d="m298.28,63.7c12.28,1.52 14.71,16.52 16.46,20.29l-12.05,10.11s-7.63,-12.83 -8.74,-17.81c-1.15,-5.19 -0.11,-13.14 4.33,-12.59z"/>
   <path id="svg_37" fill="#FCA311" d="m264.36,323a3.25,3.25 0 0 1 -2.18,-0.57a1.12,1.12 0 0 1 -0.29,-1.07a0.8,0.8 0 0 1 0.43,-0.58c1.19,-0.62 4.68,1.26 5.07,1.48a0.2,0.2 0 0 1 0.1,0.22a0.27,0.27 0 0 1 -0.2,0.19a16.67,16.67 0 0 1 -2.93,0.33zm-1.45,-1.91a0.88,0.88 0 0 0 -0.42,0.08a0.31,0.31 0 0 0 -0.17,0.23a0.75,0.75 0 0 0 0.18,0.7c0.51,0.51 2,0.59 4.1,0.25a11,11 0 0 0 -3.69,-1.25l0,-0.01z"/>
   <path id="svg_38" fill="#FCA311" d="m267.25,322.68l-0.09,0c-1.05,-0.5 -3,-2.49 -2.74,-3.53c0.06,-0.25 0.27,-0.56 0.88,-0.62a1.46,1.46 0 0 1 1.17,0.38c1.06,1 1,3.45 1,3.55a0.23,0.23 0 0 1 -0.11,0.2a0.2,0.2 0 0 1 -0.11,0.02zm-1.82,-3.74l-0.13,0c-0.4,0 -0.45,0.2 -0.46,0.25c-0.17,0.63 1.15,2.19 2.2,2.87a4.6,4.6 0 0 0 -0.88,-2.84a1,1 0 0 0 -0.73,-0.28z"/>
   <polygon id="svg_39" fill="#b55b52" points="334,318.9800109863281 324.9800109863281,320.9200134277344 317.4700012207031,300.69000244140625 326.489990234375,298.75 334,318.9800109863281 "/>
   <path id="svg_40" fill="#263238" d="m324.42,320l10.13,-2.19a0.74,0.74 0 0 1 0.86,0.46l3,7.75a1.46,1.46 0 0 1 -1.08,1.91c-3.55,0.7 -5.29,0.86 -9.75,1.82c-2.74,0.59 -7.59,2.45 -11.45,2.18s-3.85,-4.11 -2.22,-4.34c7.3,-1.05 7.22,-4.2 9.14,-6.71a2.42,2.42 0 0 1 1.37,-0.88z"/>
   <path id="svg_41" fill="#FCA311" d="m323.32,321.84a3.57,3.57 0 0 1 -2.32,-0.08a1.23,1.23 0 0 1 -0.62,-0.95a0.68,0.68 0 0 1 0.23,-0.65c1,-0.84 5,0.21 5.43,0.34a0.21,0.21 0 0 1 0.17,0.19a0.23,0.23 0 0 1 -0.13,0.22a15.89,15.89 0 0 1 -2.76,0.93zm-2,-1.51a0.89,0.89 0 0 0 -0.38,0.16a0.28,0.28 0 0 0 -0.09,0.26a0.8,0.8 0 0 0 0.4,0.63c0.66,0.37 2.17,0.14 4.09,-0.62a11.73,11.73 0 0 0 -4.06,-0.43l0.04,0z"/>
   <path id="svg_42" fill="#FCA311" d="m326,320.92l0,0c-1.19,-0.25 -3.76,-1.73 -3.83,-2.79c0,-0.25 0.09,-0.58 0.67,-0.77a1.59,1.59 0 0 1 1.26,0.11c1.35,0.7 2.12,3.07 2.15,3.17a0.22,0.22 0 0 1 -0.05,0.21a0.19,0.19 0 0 1 -0.2,0.07zm-3,-3.18l-0.13,0c-0.38,0.13 -0.37,0.29 -0.37,0.34c0,0.63 1.83,1.85 3.08,2.27a5.14,5.14 0 0 0 -1.78,-2.52a1.14,1.14 0 0 0 -0.74,-0.09l-0.06,0z"/>
   <g id="svg_43" opacity="0.2">
    <polygon id="svg_44" points="317.4700012207031,300.70001220703125 321.3399963378906,311.1300048828125 330.3599853515625,309.17999267578125 326.489990234375,298.75 317.4700012207031,300.70001220703125 "/>
   </g>
   <path id="svg_45" fill="#FCA311" d="m299.79,120.75c9,14.28 6.47,66.8 7.89,94.84c8.44,24.87 23.33,91.27 23.33,91.27l-12.19,2.63s-26.89,-65.9 -32.47,-94.05c-6.16,-31.07 -13.66,-94.69 -13.66,-94.69l27.1,0z"/>
   <polygon id="svg_46" fill="#263238" points="331.9200134277344,307.1199951171875 317.6199951171875,310.2099914550781 316.1199951171875,305.75 332.0799865722656,301.7200012207031 331.9200134277344,307.1199951171875 "/>
   <path id="svg_47" fill="#263238" d="m273.33,34.44l-1.8,-0.48s0.94,1.38 1.8,0.48z"/>
   <path id="svg_48" fill="#263238" d="m300.28,118.54l1.06,3.32c0.14,0.26 -0.16,0.53 -0.6,0.55l-38.54,1.14c-0.33,0 -0.62,-0.14 -0.64,-0.36l-0.44,-3.34c0,-0.23 0.25,-0.43 0.62,-0.45l37.92,-1.12a0.67,0.67 0 0 1 0.62,0.26z"/>
   <path id="svg_49" fill="#FCA311" d="m295.31,122.93l1,0c0.2,0 0.35,-0.11 0.34,-0.24l-0.61,-4.34c0,-0.13 -0.2,-0.23 -0.4,-0.22l-1,0c-0.2,0 -0.35,0.11 -0.33,0.24l0.6,4.34c0.02,0.13 0.2,0.23 0.4,0.22z"/>
   <path id="svg_50" fill="#FCA311" d="m265.07,123.83l1,0c0.2,0 0.35,-0.11 0.33,-0.24l-0.6,-4.34c0,-0.13 -0.2,-0.23 -0.4,-0.22l-1,0c-0.2,0 -0.35,0.11 -0.34,0.24l0.61,4.34c0.02,0.13 0.2,0.23 0.4,0.22z"/>
   <path id="svg_51" fill="#FCA311" d="m280.19,123.38l1,0c0.2,0 0.35,-0.11 0.33,-0.24l-0.6,-4.34c0,-0.13 -0.2,-0.23 -0.4,-0.22l-1,0c-0.2,0 -0.35,0.11 -0.33,0.24l0.6,4.34c0.02,0.13 0.21,0.23 0.4,0.22z"/>
   <path id="svg_52" fill="#b55b52" d="m307,133l-6.75,7.33l9.37,0.41c0,0.11 3.05,-5 1.14,-8.36l-3.76,0.62z"/>
   <path id="svg_53" fill="#b55b52" d="m302.71,148l2.72,0a2.8,2.8 0 0 0 2.66,-2l1.55,-5.25l-9.37,-0.41l-0.38,4.66a2.81,2.81 0 0 0 2.82,3z"/>
  </g>
  <g id="freepik--character-1--inject-2">
   <polygon id="svg_54" fill="#ffc3bd" points="63.33000183105469,321.44000244140625 54.720001220703125,321.30999755859375 55.25999450683594,301.2900085449219 63.8699951171875,301.4200134277344 63.33000183105469,321.44000244140625 "/>
   <path id="svg_55" fill="#263238" d="m54.62,320.31l9.41,0.15a0.66,0.66 0 0 1 0.67,0.6l0.82,7.7a1.41,1.41 0 0 1 -1.42,1.51c-3.39,-0.11 -8.27,-0.38 -12.54,-0.45c-5,-0.08 -4.5,0.13 -10.35,0c-3.54,-0.05 -4.11,-3.65 -2.59,-4c6.91,-1.37 7.61,-1.44 13.85,-4.95a4.3,4.3 0 0 1 2.15,-0.56z"/>
   <path id="svg_56" fill="#ffc3bd" d="m52.63,63.6c-2,6.26 -4.19,12.44 -6.48,18.59c-1.14,3.08 -2.3,6.15 -3.51,9.21s-2.42,6.12 -3.7,9.18c-0.29,0.73 -0.7,1.61 -1.06,2.43s-0.76,1.61 -1.15,2.39s-0.8,1.55 -1.22,2.3s-0.82,1.51 -1.25,2.24c-1.66,3 -3.49,5.76 -5.3,8.56c-3.68,5.57 -7.58,10.88 -11.78,16.06l-5.44,-3.56l8.63,-17.44a146.18,146.18 0 0 0 7.46,-17.17l6.08,-18.51c2,-6.18 4.15,-12.37 6.32,-18.49l12.4,4.21z"/>
   <path id="svg_57" fill="#263238" d="m58.42,59.59c-2.11,6.94 -9.4,24.27 -9.4,24.27l-16.71,-11.66s2.94,-11.28 9.55,-16.59c9.38,-7.53 19.28,-4.97 16.56,3.98z"/>
   <path id="svg_58" opacity="0.2" d="m48.48,65.23c-6.15,1.49 -10.81,7.69 -10.06,11.24l10.6,7.39s2.27,-8.71 6.28,-14.51c-2.3,-2.35 -5.04,-4.55 -6.82,-4.12z"/>
   <path id="svg_59" fill="#FCA311" d="m45.78,81a11.8,11.8 0 0 0 1.66,-1.51s-12.41,-8.65 -15.54,-8.74a4,4 0 0 0 -0.91,2.33s10.84,8.05 14.79,7.92z"/>
   <path id="svg_60" fill="#ffc3bd" d="m14.79,128.05l-8.31,5.36l6.65,7.23s7,-3.27 5.75,-9.56l-4.09,-3.03z"/>
   <path id="svg_61" fill="#ffc3bd" d="m3,141.8l4.1,2.08a2,2 0 0 0 2.12,-0.2l3.95,-3l-6.65,-7.23l-4.19,5.4a2,2 0 0 0 0.67,2.95z"/>
   <polygon id="svg_62" opacity="0.2" points="55.25999450683594,301.2900085449219 54.97999572753906,311.6099853515625 63.600006103515625,311.75 63.8800048828125,301.42999267578125 55.25999450683594,301.2900085449219 "/>
   <path id="svg_63" fill="#263238" d="m94.22,55.31c-8.05,32.79 -4.86,67.59 -5.43,74.63l-46.18,-0.75c-3,-36.36 0,-60.23 1.88,-70.79a8.81,8.81 0 0 1 7.73,-7.18l0.57,-0.06c1.26,-0.13 2.62,-0.24 4,-0.32c0.78,-0.05 1.58,-0.07 2.38,-0.09a173,173 0 0 1 19.64,1.46c1.23,0.15 2.49,0.34 3.7,0.54s2.24,0.39 3.28,0.6c4.77,0.93 8.43,1.96 8.43,1.96z"/>
   <path id="svg_64" opacity="0.2" d="m84.93,69.37c-0.71,3.18 0.79,17.65 4.24,21.22c0.27,-4.63 0.69,-9.47 1.3,-14.42l-5.54,-6.8z"/>
   <path id="svg_65" fill="#ffc3bd" d="m77.69,30c-1.46,6.2 -3.12,17.65 1.14,22.18c-3.55,3.15 -8.22,7.22 -15.69,6.45c-6.09,-0.62 -6,-5.34 -3.93,-7.91c7.1,-1.15 7.11,-6.38 6.06,-11.36l12.42,-9.36z"/>
   <path id="svg_66" opacity="0.2" d="m76.46,37l-5.12,-2.14l-1.91,1.44c0.2,0.7 -0.31,3.24 0,4c0.88,2.12 4.41,3.23 6.69,2.87a42.41,42.41 0 0 1 0.34,-6.17z"/>
   <path id="svg_67" fill="#263238" d="m73,3.21c-3.59,2.66 -3.6,3 -7.36,2.27s-14.39,-4.61 -11.56,4.57c-8.94,0.52 -7.68,9.93 -3.68,15.23s8,5.81 8.46,10.16c0.58,5.11 9.23,6.1 10.44,3.23l12.35,-10.54c4.1,0.25 0.14,-6.43 2.17,-10.27a4.28,4.28 0 0 0 0.06,-3.88a7,7 0 0 0 2.83,-2.48c4.13,-6.07 -7.88,-12.57 -13.71,-8.29z"/>
   <path id="svg_68" fill="#ffc3bd" d="m59,21.82c1.08,8.49 1.28,13.51 5.88,17.57c6.91,6.1 17.19,1.41 18.67,-7.25c1.33,-7.8 -0.66,-20.37 -9.24,-23.14a11.79,11.79 0 0 0 -15.31,12.82z"/>
   <path id="svg_69" fill="#263238" d="m59.85,11.74c4.47,-1 8.57,4.18 6.15,7.78s2.74,8.08 -2.67,10.4c-3.78,1.62 -5.61,-2.31 -7.44,-5c-2.81,-4.11 -0.8,-12.13 3.96,-13.18z"/>
   <path id="svg_70" fill="#263238" d="m55.48,10.65c5.46,2.94 6.79,5.8 14.9,3c4.79,-1.64 6,2.13 12.16,0.8c1.19,-7.27 -7.29,-8.88 -11.57,-8.08s-15.49,4.28 -15.49,4.28z"/>
   <path id="svg_71" fill="#263238" d="m55.48,12.11a1.48,1.48 0 0 1 -0.48,-0.11c-5.85,-2 -5.77,-6.41 -5.76,-6.6a1.49,1.49 0 0 1 1.5,-1.41a1.46,1.46 0 0 1 1.41,1.48c0,0.15 0.09,2.52 3.78,3.77a1.46,1.46 0 0 1 -0.47,2.84l0.02,0.03z"/>
   <path id="svg_72" fill="#ffc3bd" d="m57.62,30.07a8.25,8.25 0 0 0 4.46,3.49c2.22,0.6 2.75,-1.83 1.64,-4.29c-1,-2.21 -3.35,-5.19 -5.35,-4.7s-2.17,3.33 -0.75,5.5z"/>
   <path id="svg_73" fill="#FCA311" d="m69.38,214.88c-0.35,-43.41 9.26,-85.1 9.26,-85.1l-36,-0.58s4.14,62.7 5.58,89c1.5,27.3 3.59,91.41 3.59,91.41l14.61,0.22s4.98,-60.69 2.96,-94.95z"/>
   <path id="svg_74" opacity="0.2" d="m70.81,153.66c-10.26,14.05 -5.65,40.47 -1.44,59.14a400.45,400.45 0 0 1 5.24,-61.46l-3.8,2.32z"/>
   <polygon id="svg_75" fill="#263238" points="50.900001525878906,309.8800048828125 68.27999877929688,310.1499938964844 69.25999450683594,304.5199890136719 49.88999938964844,303.9200134277344 50.900001525878906,309.8800048828125 "/>
   <path id="svg_76" fill="#263238" d="m73.06,23.89c0,0.69 0.45,1.23 0.9,1.19s0.79,-0.62 0.74,-1.32s-0.45,-1.23 -0.9,-1.19s-0.8,0.62 -0.74,1.32z"/>
   <path id="svg_77" fill="#263238" d="m81.22,23.3c0.05,0.7 0.45,1.23 0.91,1.2s0.78,-0.63 0.74,-1.32s-0.45,-1.23 -0.91,-1.2s-0.78,0.63 -0.74,1.32z"/>
   <path id="svg_78" fill="#ed847e" d="m78.83,23.41a24.63,24.63 0 0 0 3.71,5.7c-1.15,1.23 -3.28,0.86 -3.28,0.86l-0.43,-6.56z"/>
   <path id="svg_79" fill="#263238" d="m74.65,32a5.69,5.69 0 0 1 -4.07,-2a0.21,0.21 0 0 1 0.33,-0.25a5.46,5.46 0 0 0 4.62,1.82a0.2,0.2 0 0 1 0.22,0.19a0.21,0.21 0 0 1 -0.19,0.22a6.9,6.9 0 0 1 -0.91,0.02z"/>
   <path id="svg_80" fill="#263238" d="m71.08,21.21a0.36,0.36 0 0 1 -0.2,-0.06a0.4,0.4 0 0 1 -0.11,-0.57a4.09,4.09 0 0 1 3.21,-1.93a0.41,0.41 0 0 1 0,0.82l0,0a3.26,3.26 0 0 0 -2.53,1.56a0.41,0.41 0 0 1 -0.37,0.18z"/>
   <path id="svg_81" fill="#263238" d="m83.09,19.14a0.43,0.43 0 0 1 -0.35,-0.17a3.15,3.15 0 0 0 -2.59,-1.38a0.41,0.41 0 0 1 -0.43,-0.39a0.41,0.41 0 0 1 0.38,-0.43a4,4 0 0 1 3.3,1.71a0.41,0.41 0 0 1 -0.08,0.58a0.49,0.49 0 0 1 -0.23,0.08z"/>
   <path id="svg_82" fill="#FCA311" d="m53.06,321.08a0.2,0.2 0 0 0 0.13,-0.16a0.22,0.22 0 0 0 -0.1,-0.22c-0.39,-0.2 -3.83,-2 -4.89,-1.45a0.69,0.69 0 0 0 -0.35,0.54l0,0a1.17,1.17 0 0 0 0.37,1c0.93,0.85 3.41,0.55 4.81,0.3l0.03,-0.01zm-4.59,-1.5c0.65,-0.22 2.52,0.53 3.88,1.2c-1.91,0.29 -3.33,0.19 -3.85,-0.29a0.75,0.75 0 0 1 -0.24,-0.66a0.24,0.24 0 0 1 0.13,-0.22l0.08,-0.03z"/>
   <path id="svg_83" fill="#FCA311" d="m53.06,321.08l0.05,0a0.21,0.21 0 0 0 0.09,-0.18c0,-0.1 -0.21,-2.43 -1.29,-3.35a1.52,1.52 0 0 0 -1.13,-0.37l0,0c-0.56,0.05 -0.73,0.34 -0.77,0.56c-0.17,1 1.86,2.88 2.89,3.36a0.29,0.29 0 0 0 0.16,-0.02zm-2.45,-3.48a0.87,0.87 0 0 1 0.21,0l0,0a1.11,1.11 0 0 1 0.83,0.27a4.82,4.82 0 0 1 1.09,2.68c-1.05,-0.65 -2.43,-2.14 -2.33,-2.72c0.01,-0.08 0.03,-0.17 0.2,-0.23zm0.19,-0.24l0,0z"/>
   <polygon id="svg_84" fill="#ffc3bd" points="124.80999755859375,321.44000244140625 116.16000366210938,321.30999755859375 110.6199951171875,301.2900085449219 119.27999877929688,301.4200134277344 124.80999755859375,321.44000244140625 "/>
   <path id="svg_85" fill="#263238" d="m115.55,320.31l9.44,0.15a0.82,0.82 0 0 1 0.77,0.6l2.14,7.7a1.16,1.16 0 0 1 -1.16,1.51c-3.41,-0.11 -4.52,-0.38 -8.8,-0.45c-5,-0.08 -2.66,0.13 -8.53,0c-3.55,-0.05 -4.73,-3.63 -3.27,-4c4.62,-1 5.56,-2.91 7.37,-4.95a2.67,2.67 0 0 1 2.04,-0.56z"/>
   <polygon id="svg_86" opacity="0.2" points="110.6199951171875,301.2900085449219 113.47999572753906,311.6099853515625 122.13999938964844,311.75 119.27999877929688,301.42999267578125 110.6199951171875,301.2900085449219 "/>
   <path id="svg_87" fill="#FCA311" d="m103.17,215.49c-4.9,-38.8 -8.56,-76.88 -14.38,-85.55l-30.51,-0.49s17.65,63 23.61,88.88c6.18,26.87 27.65,88.67 27.65,88.67l13.92,0.2s-11.15,-61.7 -20.29,-91.71z"/>
   <polygon id="svg_88" fill="#263238" points="107.6199951171875,309.8800048828125 124.99000549316406,310.1499938964844 125.97000122070312,304.5199890136719 106.61000061035156,303.9200134277344 107.6199951171875,309.8800048828125 "/>
   <path id="svg_89" fill="#FCA311" d="m116.09,321a0.19,0.19 0 0 0 0.19,-0.1a0.21,0.21 0 0 0 0,-0.24c-0.29,-0.33 -2.9,-3.21 -4.09,-3a0.64,0.64 0 0 0 -0.51,0.39l0,0a1.11,1.11 0 0 0 0,1.06c0.58,1.12 3,1.69 4.41,1.93l0,-0.04zm-3.79,-3c0.69,0 2.19,1.37 3.23,2.46c-1.89,-0.38 -3.19,-1 -3.52,-1.6a0.75,0.75 0 0 1 0,-0.7a0.24,0.24 0 0 1 0.2,-0.16l0.09,0z"/>
   <path id="svg_90" fill="#FCA311" d="m116.09,321l0.06,0a0.21,0.21 0 0 0 0.14,-0.15c0,-0.09 0.65,-2.34 0,-3.58a1.49,1.49 0 0 0 -0.94,-0.73l0,0c-0.54,-0.15 -0.8,0.06 -0.91,0.26c-0.5,0.85 0.76,3.33 1.56,4.14a0.2,0.2 0 0 0 0.09,0.06zm-1.11,-4.1l0.22,0l0,0a1.08,1.08 0 0 1 0.68,0.54a4.8,4.8 0 0 1 0.11,2.89c-0.77,-1 -1.55,-2.84 -1.25,-3.36a0.23,0.23 0 0 1 0.26,-0.11l-0.02,0.04zm0.27,-0.17l0,0z"/>
   <path id="svg_91" fill="#ffc3bd" d="m97.88,64.66l0.35,0.79l0.42,0.9l0.86,1.84c0.61,1.23 1.25,2.45 1.92,3.65c1.33,2.43 2.76,4.8 4.29,7.08a78.2,78.2 0 0 0 4.89,6.6c0.85,1.07 1.8,2 2.68,3.07l1.42,1.44l0.71,0.73l0.09,0.09l0,0s0,0 -0.07,0s-0.25,0 -0.22,0a0.89,0.89 0 0 0 0.53,0.06a8.77,8.77 0 0 0 2.67,-0.8a37.92,37.92 0 0 0 6.58,-4.11a146.69,146.69 0 0 0 13,-11.25l5.08,4a85.28,85.28 0 0 1 -5.43,7.59a78.07,78.07 0 0 1 -6.3,7a43.2,43.2 0 0 1 -7.91,6.3a20,20 0 0 1 -5.64,2.36a12.63,12.63 0 0 1 -3.93,0.28a11.17,11.17 0 0 1 -4.45,-1.38c-0.33,-0.21 -0.68,-0.42 -1,-0.65l-0.47,-0.35l-0.23,-0.18l-0.11,-0.1l-0.94,-0.8l-1.86,-1.6c-1.18,-1.13 -2.4,-2.23 -3.48,-3.44a71,71 0 0 1 -6.22,-7.45a77.54,77.54 0 0 1 -5.22,-8.1c-0.78,-1.41 -1.52,-2.83 -2.23,-4.29c-0.35,-0.73 -0.71,-1.46 -1,-2.21l-0.49,-1.15l-0.5,-1.28l12.21,-4.64z"/>
   <path id="svg_92" fill="#263238" d="m94.22,55.31c8,2.46 11.67,20.3 11.67,20.3l-12.18,10.7a49.94,49.94 0 0 1 -10.84,-16.87c-4.11,-11.02 1.7,-17.12 11.35,-14.13z"/>
   <path id="svg_93" fill="#FCA311" d="m106.48,75.94a12.36,12.36 0 0 0 -0.86,-2.08s-12.32,8.79 -13.45,11.7a4,4 0 0 0 1.89,1.64s11.18,-7.52 12.42,-11.26z"/>
   <path id="svg_94" fill="#ffc3bd" d="m136.57,76.65l4.67,-7.38l6.93,7.85s-5,6.17 -8.74,4l-2.86,-4.47z"/>
   <path id="svg_95" fill="#ffc3bd" d="m150.07,67.2l2,3.16a3,3 0 0 1 -0.58,3.87l-3.29,2.89l-6.93,-7.85l4.61,-3a3,3 0 0 1 4.19,0.93z"/>
  </g>
  <g id="freepik--Heart--inject-2">
   <path id="svg_96" fill="#FCA311" d="m251.47,88.44a49.23,49.23 0 0 0 -34.92,-14.44l-21.12,0l0,4.74a49.46,49.46 0 0 0 -13.8,9.72a49.24,49.24 0 0 0 -35.3,-14.46l-21.11,0l0,4.92a49.38,49.38 0 0 0 -13.43,79.39l48.5,48.5l-0.23,0l0,21.34l15.32,0a15.09,15.09 0 0 0 10.67,-4.42l65.42,-65.42a49.39,49.39 0 0 0 0,-69.87z"/>
   <path id="svg_97" opacity="0.2" d="m251.47,88.44a49.23,49.23 0 0 0 -34.92,-14.44l-21.12,0l0,4.74a49.46,49.46 0 0 0 -13.8,9.72a49.24,49.24 0 0 0 -35.3,-14.46l-21.11,0l0,4.92a49.38,49.38 0 0 0 -13.43,79.39l48.5,48.5l-0.23,0l0,21.34l15.32,0a15.09,15.09 0 0 0 10.67,-4.42l65.42,-65.42a49.39,49.39 0 0 0 0,-69.87z"/>
   <path id="svg_98" fill="#FCA311" d="m229.9,88.44a49.39,49.39 0 0 0 -69.84,0a49.39,49.39 0 0 0 -69.84,69.85l69.84,69.84l69.84,-69.84a49.39,49.39 0 0 0 0,-69.85z"/>
   <rect id="svg_99" fill="#FCA311" transform="rotate(-45, -221.83, 148.67)" height="15.27" width="1" y="433.2" x="-11.48"/>
   <rect id="svg_100" fill="#FCA311" transform="rotate(-45, -226.86, 160.8)" height="6.96" width="1" y="461.6" x="-4.39"/>
   <path id="svg_101" opacity="0.2" d="m229.9,88.44a49.39,49.39 0 0 0 -69.84,0a49.39,49.39 0 0 0 -69.84,69.85l69.84,69.84l69.84,-69.84a49.39,49.39 0 0 0 0,-69.85z"/>
   <path id="svg_102" fill="#FCA311" d="m97.42,151.08a39.19,39.19 0 1 1 55.43,-55.43l7.21,7.21l7.21,-7.21a39.19,39.19 0 1 1 55.43,55.43l-62.64,62.64l-62.64,-62.64z"/>
   <path id="svg_103" fill="#fff" d="m109.16,116.62l17.22,0l0,4.53l-5.78,0l0,13.85l-5.67,0l0,-13.8l-5.77,0l0,-4.58z"/>
   <path id="svg_104" fill="#fff" d="m129,116.62l5.67,0l0,6.38l6.19,0l0,-6.41l5.69,0l0,18.41l-5.69,0l0,-7.41l-6.19,0l0,7.41l-5.67,0l0,-18.38z"/>
   <path id="svg_105" fill="#fff" d="m161.54,131.92l-6.43,0l-0.89,3l-5.79,0l6.89,-18.33l6.18,0l6.89,18.41l-5.93,0l-0.92,-3.08zm-1.17,-4l-2,-6.59l-2,6.59l4,0z"/>
   <path id="svg_106" fill="#fff" d="m170.23,116.62l5.29,0l6.9,10.14l0,-10.14l5.34,0l0,18.38l-5.34,0l-6.86,-10.07l0,10.07l-5.33,0l0,-18.38z"/>
   <path id="svg_107" fill="#fff" d="m191.55,116.62l5.67,0l0,6.93l5.93,-6.93l7.53,0l-6.68,6.92l7,11.46l-7,0l-3.87,-7.54l-2.92,3.07l0,4.47l-5.67,0l0.01,-18.38z"/>
   <path id="svg_108" fill="#fff" d="m129.28,147.35l6.29,0l3.69,6.19l3.7,-6.19l6.26,0l-7.13,10.65l0,7.68l-5.67,0l0,-7.68l-7.14,-10.65z"/>
   <path id="svg_109" fill="#fff" d="m148.8,156.53a8.68,8.68 0 0 1 9.46,-9.49c3.05,0 5.41,0.82 7.06,2.46a9.24,9.24 0 0 1 2.47,6.88a11.3,11.3 0 0 1 -1.08,5.27a7.66,7.66 0 0 1 -3.13,3.2a10.33,10.33 0 0 1 -5.09,1.15a11.74,11.74 0 0 1 -5.14,-1a7.72,7.72 0 0 1 -3.29,-3.13a10.38,10.38 0 0 1 -1.26,-5.34zm5.66,0a6.18,6.18 0 0 0 1,4a3.9,3.9 0 0 0 5.64,0c0.66,-0.79 1,-2.21 1,-4.27a5.65,5.65 0 0 0 -1,-3.78a3.58,3.58 0 0 0 -2.83,-1.19a3.43,3.43 0 0 0 -2.75,1.21a6.18,6.18 0 0 0 -1.06,4.05l0,-0.02z"/>
   <path id="svg_110" fill="#fff" d="m182.77,147.35l5.66,0l0,10.92a9.11,9.11 0 0 1 -0.51,3.07a6.67,6.67 0 0 1 -1.59,2.52a6.34,6.34 0 0 1 -2.27,1.52a11.35,11.35 0 0 1 -4,0.62a25.92,25.92 0 0 1 -2.92,-0.19a7.55,7.55 0 0 1 -2.65,-0.75a6.5,6.5 0 0 1 -1.94,-1.58a5.76,5.76 0 0 1 -1.21,-2.11a10.9,10.9 0 0 1 -0.52,-3.1l0,-10.92l5.65,0l0,11.18a3.24,3.24 0 0 0 0.83,2.35a3.59,3.59 0 0 0 4.6,0a3.18,3.18 0 0 0 0.83,-2.36l0.04,-11.17z"/>
  </g>
 </g>
</svg>